<?xml version="1.0" encoding="UTF-8"?>
<svg xmlns="http://www.w3.org/2000/svg" xmlns:xlink="http://www.w3.org/1999/xlink" width="25pt" height="25pt" viewBox="0 0 25 25" version="1.1">
<g id="surface1">
<path style=" stroke:none;fill-rule:nonzero;fill:rgb(0%,0%,0%);fill-opacity:1;" d="M 5.433594 9.78125 L 6.519531 9.78125 C 7.171875 9.78125 7.605469 10.324219 7.605469 10.867188 L 8.691406 10.867188 C 8.691406 9.671875 7.714844 8.691406 6.519531 8.691406 L 5.433594 8.691406 C 4.238281 8.691406 3.261719 9.671875 3.261719 10.867188 C 3.261719 12.0625 4.238281 13.039062 5.433594 13.039062 L 6.519531 13.039062 C 7.171875 13.039062 7.605469 13.472656 7.605469 14.125 C 7.605469 14.777344 7.171875 15.214844 6.519531 15.214844 L 5.433594 15.214844 C 4.78125 15.214844 4.347656 14.667969 4.347656 14.125 L 3.261719 14.125 C 3.261719 15.320312 4.238281 16.300781 5.433594 16.300781 L 6.519531 16.300781 C 7.714844 16.300781 8.691406 15.320312 8.691406 14.125 C 8.691406 12.929688 7.714844 11.953125 6.519531 11.953125 L 5.433594 11.953125 C 4.78125 11.953125 4.347656 11.519531 4.347656 10.867188 C 4.347656 10.214844 4.78125 9.78125 5.433594 9.78125 Z M 5.433594 9.78125 "/>
<path style=" stroke:none;fill-rule:nonzero;fill:rgb(0%,0%,0%);fill-opacity:1;" d="M 15.214844 14.125 L 15.214844 10.867188 C 15.214844 9.671875 14.234375 8.691406 13.039062 8.691406 L 11.953125 8.691406 C 10.757812 8.691406 9.78125 9.671875 9.78125 10.867188 L 9.78125 14.125 C 9.78125 15.320312 10.757812 16.300781 11.953125 16.300781 L 13.039062 16.300781 C 13.257812 16.300781 13.582031 16.300781 13.800781 16.191406 L 14.777344 17.167969 L 15.539062 16.410156 L 14.667969 15.539062 C 14.996094 15.214844 15.214844 14.667969 15.214844 14.125 Z M 14.125 14.125 C 14.125 14.34375 14.019531 14.5625 13.910156 14.777344 L 12.386719 13.257812 L 11.628906 14.019531 L 12.824219 15.214844 L 11.953125 15.214844 C 11.300781 15.214844 10.867188 14.777344 10.867188 14.125 L 10.867188 10.867188 C 10.867188 10.214844 11.300781 9.78125 11.953125 9.78125 L 13.039062 9.78125 C 13.691406 9.78125 14.125 10.214844 14.125 10.867188 Z M 14.125 14.125 "/>
<path style=" stroke:none;fill-rule:nonzero;fill:rgb(0%,0%,0%);fill-opacity:1;" d="M 21.734375 5.433594 L 3.261719 5.433594 C 1.414062 5.433594 0 6.847656 0 8.691406 L 0 16.300781 C 0 18.148438 1.414062 19.558594 3.261719 19.558594 L 21.734375 19.558594 C 23.582031 19.558594 24.992188 18.148438 24.992188 16.300781 L 24.992188 8.691406 C 24.992188 6.847656 23.582031 5.433594 21.734375 5.433594 Z M 23.90625 16.300781 C 23.90625 17.496094 22.929688 18.472656 21.734375 18.472656 L 3.261719 18.472656 C 2.066406 18.472656 1.085938 17.496094 1.085938 16.300781 L 1.085938 8.691406 C 1.085938 7.496094 2.066406 6.519531 3.261719 6.519531 L 21.734375 6.519531 C 22.929688 6.519531 23.90625 7.496094 23.90625 8.691406 Z M 23.90625 16.300781 "/>
<path style=" stroke:none;fill-rule:nonzero;fill:rgb(0%,0%,0%);fill-opacity:1;" d="M 17.386719 8.691406 L 16.300781 8.691406 L 16.300781 16.300781 L 21.734375 16.300781 L 21.734375 15.214844 L 17.386719 15.214844 Z M 17.386719 8.691406 "/>
</g>
</svg>
