<?xml version="1.0" encoding="UTF-8"?>
<svg xmlns="http://www.w3.org/2000/svg" xmlns:xlink="http://www.w3.org/1999/xlink" width="20pt" height="20pt" viewBox="0 0 20 20" version="1.1">
<g id="surface1">
<rect x="0" y="0" width="20" height="20" style="fill:rgb(96.862745%,87.45098%,11.764706%);fill-opacity:1;stroke:none;"/>
<path style=" stroke:none;fill-rule:nonzero;fill:rgb(0%,0%,0%);fill-opacity:1;" d="M 5.257812 16.714844 L 6.789062 15.789062 C 7.085938 16.3125 7.351562 16.753906 7.996094 16.753906 C 8.613281 16.753906 9.003906 16.511719 9.003906 15.574219 L 9.003906 9.183594 L 10.882812 9.183594 L 10.882812 15.597656 C 10.882812 17.546875 9.742188 18.433594 8.078125 18.433594 C 6.574219 18.433594 5.703125 17.652344 5.257812 16.714844 M 11.90625 16.511719 L 13.433594 15.625 C 13.839844 16.285156 14.363281 16.765625 15.289062 16.765625 C 16.066406 16.765625 16.5625 16.378906 16.5625 15.839844 C 16.5625 15.195312 16.054688 14.96875 15.195312 14.59375 L 14.722656 14.390625 C 13.367188 13.8125 12.46875 13.089844 12.46875 11.558594 C 12.46875 10.148438 13.542969 9.074219 15.222656 9.074219 C 16.414062 9.074219 17.273438 9.492188 17.890625 10.578125 L 16.429688 11.519531 C 16.105469 10.941406 15.757812 10.710938 15.21875 10.710938 C 14.671875 10.710938 14.320312 11.0625 14.320312 11.519531 C 14.320312 12.082031 14.671875 12.308594 15.476562 12.660156 L 15.945312 12.859375 C 17.542969 13.546875 18.441406 14.242188 18.441406 15.8125 C 18.441406 17.503906 17.113281 18.433594 15.328125 18.433594 C 13.582031 18.433594 12.453125 17.601562 11.90625 16.511719 "/>
</g>
</svg>
